<?xml version="1.0" encoding="UTF-8" standalone="no"?><!DOCTYPE svg PUBLIC "-//W3C//DTD SVG 1.1//EN" "http://www.w3.org/Graphics/SVG/1.1/DTD/svg11.dtd"><svg width="100%" height="100%" viewBox="0 0 1723 1722" version="1.1" xmlns="http://www.w3.org/2000/svg" xmlns:xlink="http://www.w3.org/1999/xlink" xml:space="preserve" xmlns:serif="http://www.serif.com/" style="fill-rule:evenodd;clip-rule:evenodd;stroke-miterlimit:10;"><rect id="Page-1" serif:id="Page 1" x="0" y="0" width="1722.496" height="1721.913" style="fill:none;"/><clipPath id="_clip1"><rect x="0" y="0" width="1722.496" height="1721.913"/></clipPath><g clip-path="url(#_clip1)"><g id="Calque-1" serif:id="Calque 1"><path d="M693.341,976.815c16.342,0 30.325,5.892 41.954,17.671c11.629,11.783 17.442,26.021 17.442,42.717c0,11.188 -2.729,21.392 -8.188,30.617c-5.463,9.229 -12.633,16.479 -21.508,21.75l0,64.708c-9.742,2.554 -19.642,3.833 -29.7,3.833c-10.212,0 -20.15,-1.279 -29.817,-3.833l0,-64.708c-8.958,-5.271 -16.146,-12.521 -21.567,-21.75c-5.421,-9.225 -8.133,-19.429 -8.133,-30.617c0,-16.696 5.796,-30.933 17.387,-42.717c11.583,-11.779 25.633,-17.671 42.129,-17.671c-8.25,0 -15.279,-2.954 -21.096,-8.871c-6.346,-6.454 -9.225,-14.379 -8.646,-23.783c0.388,-6.263 2.829,-12.325 6.904,-17.088c6.133,-7.183 13.746,-10.771 22.837,-10.771c8.992,0 16.558,3.579 22.696,10.742c4.075,4.746 6.529,10.796 6.925,17.042c0.604,9.438 -2.279,17.388 -8.642,23.858c-5.817,5.917 -12.808,8.871 -20.979,8.871Z" style="fill:none;fill-rule:nonzero;stroke:#f4e09c;stroke-width:8.33px;"/><path d="M691.94,1516.496c-270.783,-0.533 -489.754,-221.833 -486.488,-493.496c3.213,-267.258 224.367,-483.725 491.633,-481.487c28.004,0.238 55.446,2.833 82.133,7.6c68.642,181.854 212.692,326.671 394.037,396.337c6.525,37.763 8.754,76.992 6.013,117.208c-17.362,254.967 -231.771,454.338 -487.329,453.838m1019.396,-591.979c-6.996,-68.704 -20.767,-135.408 -40.65,-199.421c-73.704,44.779 -160.225,70.567 -252.767,70.567c-29.446,0 -58.271,-2.608 -86.279,-7.613c-5.6,-1 -11.158,-2.129 -16.692,-3.321c-1.242,-0.263 -2.479,-0.529 -3.713,-0.804c-5.417,-1.212 -10.812,-2.496 -16.167,-3.883c-0.537,-0.142 -1.075,-0.292 -1.612,-0.438c-5.054,-1.383 -10.104,-2.763 -15.125,-4.258c-1.062,-0.317 -2.133,-0.625 -3.192,-0.95c-5.246,-1.604 -10.454,-3.292 -15.621,-5.067c-1.042,-0.358 -2.071,-0.733 -3.108,-1.096c-4.892,-1.712 -9.742,-3.546 -14.592,-5.379c-0.521,-0.192 -1.037,-0.383 -1.55,-0.587c-5.108,-2 -10.171,-4.1 -15.196,-6.267c-1.075,-0.463 -2.146,-0.933 -3.217,-1.404c-10.212,-4.492 -20.237,-9.321 -30.071,-14.479c-1,-0.525 -1.996,-1.05 -2.992,-1.579c-4.862,-2.596 -9.692,-5.254 -14.45,-8.004c-0.45,-0.258 -0.892,-0.533 -1.338,-0.792c-4.492,-2.612 -8.925,-5.304 -13.321,-8.054c-0.792,-0.496 -1.588,-0.983 -2.375,-1.483c-4.65,-2.95 -9.254,-5.971 -13.8,-9.075c-0.679,-0.462 -1.35,-0.937 -2.029,-1.404c-4.3,-2.967 -8.558,-5.996 -12.758,-9.1c-0.425,-0.312 -0.854,-0.617 -1.279,-0.933c-4.479,-3.329 -8.896,-6.742 -13.254,-10.221c-0.671,-0.537 -1.337,-1.075 -2,-1.612c-8.942,-7.217 -17.625,-14.738 -26.046,-22.55c-0.508,-0.475 -1.021,-0.95 -1.529,-1.425c-4.163,-3.904 -8.275,-7.871 -12.3,-11.917c-0.042,-0.046 -0.088,-0.087 -0.133,-0.133c-4.013,-4.038 -7.938,-8.154 -11.808,-12.329c-0.417,-0.45 -0.846,-0.9 -1.263,-1.358c-3.883,-4.217 -7.692,-8.5 -11.425,-12.854l-0.254,-0.3c-3.883,-4.596 -7.758,-9.196 -11.483,-13.921c-0.108,-0.142 -0.229,-0.283 -0.337,-0.421c-3.625,-4.575 -7.162,-9.225 -10.625,-13.933c-0.279,-0.379 -0.558,-0.763 -0.833,-1.146c-7.1,-9.746 -13.862,-19.729 -20.246,-29.958c-0.133,-0.208 -0.258,-0.413 -0.388,-0.617c-6.254,-10.075 -12.154,-20.387 -17.675,-30.933c-0.154,-0.288 -0.308,-0.571 -0.454,-0.858c-2.783,-5.337 -5.475,-10.729 -8.062,-16.179c-0.037,-0.083 -0.079,-0.171 -0.121,-0.254c-5.221,-11.012 -10.038,-22.25 -14.433,-33.7l-0.346,-0.892c-4.317,-11.3 -8.229,-22.804 -11.712,-34.492c-0.1,-0.342 -0.204,-0.688 -0.304,-1.029c-3.475,-11.746 -6.521,-23.671 -9.117,-35.767c-0.05,-0.242 -0.1,-0.479 -0.154,-0.717c-1.3,-6.112 -2.496,-12.271 -3.562,-18.467c-4.688,-27.15 -7.158,-55.058 -7.158,-83.546c0,-93.546 26.367,-180.925 72.05,-255.146c-63.921,-20.275 -130.554,-34.425 -199.217,-41.817c-43.458,89.783 -67.833,190.525 -67.833,296.962c0,13.346 0.425,26.592 1.179,39.75c-14.446,-0.917 -29.004,-1.417 -43.683,-1.417c-423.704,0 -757.233,386.104 -667.933,825.667c48.475,238.629 286.142,476.296 524.771,524.771c439.562,89.296 825.667,-244.233 825.667,-667.938c0,-13.35 -0.429,-26.604 -1.183,-39.763c14.446,0.913 29,1.429 43.683,1.429c105.042,0 204.529,-23.754 293.417,-66.146" style="fill:#f4e09c;fill-rule:nonzero;"/><path d="M691.94,1516.496c-270.783,-0.533 -489.754,-221.833 -486.488,-493.496c3.213,-267.258 224.367,-483.725 491.633,-481.487c28.004,0.238 55.446,2.833 82.133,7.6c68.642,181.854 212.692,326.671 394.037,396.337c6.525,37.763 8.754,76.992 6.013,117.208c-17.362,254.967 -231.771,454.338 -487.329,453.838Zm1019.396,-591.979c-6.996,-68.704 -20.767,-135.408 -40.65,-199.421c-73.704,44.779 -160.225,70.567 -252.767,70.567c-29.446,0 -58.271,-2.608 -86.279,-7.613c-5.6,-1 -11.158,-2.129 -16.692,-3.321c-1.242,-0.263 -2.479,-0.529 -3.713,-0.804c-5.417,-1.212 -10.812,-2.496 -16.167,-3.883c-0.537,-0.142 -1.075,-0.292 -1.612,-0.438c-5.054,-1.383 -10.104,-2.763 -15.125,-4.258c-1.062,-0.317 -2.133,-0.625 -3.192,-0.95c-5.246,-1.604 -10.454,-3.292 -15.621,-5.067c-1.042,-0.358 -2.071,-0.733 -3.108,-1.096c-4.892,-1.712 -9.742,-3.546 -14.592,-5.379c-0.521,-0.192 -1.037,-0.383 -1.55,-0.587c-5.108,-2 -10.171,-4.1 -15.196,-6.267c-1.075,-0.463 -2.146,-0.933 -3.217,-1.404c-10.212,-4.492 -20.237,-9.321 -30.071,-14.479c-1,-0.525 -1.996,-1.05 -2.992,-1.579c-4.862,-2.596 -9.692,-5.254 -14.45,-8.004c-0.45,-0.258 -0.892,-0.533 -1.338,-0.792c-4.492,-2.612 -8.925,-5.304 -13.321,-8.054c-0.792,-0.496 -1.588,-0.983 -2.375,-1.483c-4.65,-2.95 -9.254,-5.971 -13.8,-9.075c-0.679,-0.462 -1.35,-0.937 -2.029,-1.404c-4.3,-2.967 -8.558,-5.996 -12.758,-9.1c-0.425,-0.312 -0.854,-0.617 -1.279,-0.933c-4.479,-3.329 -8.896,-6.742 -13.254,-10.221c-0.671,-0.537 -1.337,-1.075 -2,-1.612c-8.942,-7.217 -17.625,-14.738 -26.046,-22.55c-0.508,-0.475 -1.021,-0.95 -1.529,-1.425c-4.163,-3.904 -8.275,-7.871 -12.3,-11.917c-0.042,-0.046 -0.088,-0.087 -0.133,-0.133c-4.013,-4.038 -7.938,-8.154 -11.808,-12.329c-0.417,-0.45 -0.846,-0.9 -1.263,-1.358c-3.883,-4.217 -7.692,-8.5 -11.425,-12.854l-0.254,-0.3c-3.883,-4.596 -7.758,-9.196 -11.483,-13.921c-0.108,-0.142 -0.229,-0.283 -0.337,-0.421c-3.625,-4.575 -7.162,-9.225 -10.625,-13.933c-0.279,-0.379 -0.558,-0.763 -0.833,-1.146c-7.1,-9.746 -13.862,-19.729 -20.246,-29.958c-0.133,-0.208 -0.258,-0.413 -0.388,-0.617c-6.254,-10.075 -12.154,-20.387 -17.675,-30.933c-0.154,-0.288 -0.308,-0.571 -0.454,-0.858c-2.783,-5.337 -5.475,-10.729 -8.062,-16.179c-0.037,-0.083 -0.079,-0.171 -0.121,-0.254c-5.221,-11.012 -10.038,-22.25 -14.433,-33.7l-0.346,-0.892c-4.317,-11.3 -8.229,-22.804 -11.712,-34.492c-0.1,-0.342 -0.204,-0.688 -0.304,-1.029c-3.475,-11.746 -6.521,-23.671 -9.117,-35.767c-0.05,-0.242 -0.1,-0.479 -0.154,-0.717c-1.3,-6.112 -2.496,-12.271 -3.562,-18.467c-4.688,-27.15 -7.158,-55.058 -7.158,-83.546c0,-93.546 26.367,-180.925 72.05,-255.146c-63.921,-20.275 -130.554,-34.425 -199.217,-41.817c-43.458,89.783 -67.833,190.525 -67.833,296.962c0,13.346 0.425,26.592 1.179,39.75c-14.446,-0.917 -29.004,-1.417 -43.683,-1.417c-423.704,0 -757.233,386.104 -667.933,825.667c48.475,238.629 286.142,476.296 524.771,524.771c439.562,89.296 825.667,-244.233 825.667,-667.938c0,-13.35 -0.429,-26.604 -1.183,-39.763c14.446,0.913 29,1.429 43.683,1.429c105.042,0 204.529,-23.754 293.417,-66.146Z" style="fill:none;fill-rule:nonzero;stroke:#f4e09c;stroke-width:4.17px;"/><path d="M1043.178,321.487c0.079,2.275 0.158,4.55 0.279,6.817c0.067,1.233 0.154,2.462 0.233,3.692c0.133,2.113 0.267,4.221 0.438,6.325c0.096,1.254 0.217,2.508 0.333,3.758c0.188,2.075 0.375,4.146 0.596,6.208c0.129,1.237 0.279,2.467 0.421,3.7c0.242,2.087 0.496,4.171 0.775,6.246c0.154,1.179 0.321,2.35 0.492,3.521c0.308,2.137 0.629,4.271 0.971,6.396c0.175,1.1 0.358,2.196 0.546,3.288c0.375,2.217 0.771,4.429 1.188,6.633c0.188,0.983 0.375,1.967 0.567,2.954c0.462,2.35 0.95,4.692 1.458,7.025c0.175,0.817 0.35,1.637 0.533,2.454c0.575,2.567 1.179,5.121 1.812,7.667c0.142,0.575 0.275,1.158 0.421,1.733c0.737,2.942 1.517,5.867 2.321,8.779c0.05,0.175 0.096,0.354 0.146,0.529c5.371,19.225 12.237,37.833 20.458,55.679c37.088,80.496 101.846,145.596 182.092,183.125c3.008,1.404 6.042,2.775 9.092,4.104l0.013,0.004c21.267,9.262 43.562,16.608 66.658,21.825c0.492,0.112 0.983,0.212 1.475,0.321c2.683,0.596 5.375,1.167 8.075,1.7c0.812,0.163 1.633,0.312 2.45,0.471c2.388,0.458 4.787,0.896 7.192,1.308c1.008,0.171 2.013,0.333 3.021,0.5c2.233,0.363 4.475,0.708 6.725,1.033c1.129,0.163 2.254,0.321 3.383,0.475c2.142,0.288 4.296,0.554 6.45,0.808c1.213,0.142 2.425,0.288 3.638,0.417c2.104,0.225 4.208,0.425 6.321,0.617c1.254,0.113 2.508,0.229 3.762,0.333c2.125,0.171 4.258,0.308 6.396,0.442c1.237,0.079 2.471,0.171 3.704,0.237c2.3,0.121 4.612,0.208 6.925,0.288c1.067,0.038 2.133,0.092 3.208,0.121c3.379,0.092 6.771,0.142 10.175,0.142c78.892,0 152.083,-24.383 212.487,-66c-15.375,-34.933 -32.633,-68.85 -51.667,-101.608c-63.508,49.325 -150.183,70.233 -241.054,43.188c-81.804,-24.342 -146.225,-88.896 -170.463,-170.733c-27.042,-91.296 -5.692,-178.317 44.221,-241.837c-32.654,-19.221 -66.471,-36.671 -101.312,-52.25c-42.358,60.738 -67.213,134.583 -67.213,214.242c0,3.375 0.046,6.737 0.138,10.087c0.029,1.083 0.083,2.158 0.121,3.237" style="fill:#f4e09c;fill-rule:nonzero;"/><path d="M1043.178,321.487c0.079,2.275 0.158,4.55 0.279,6.817c0.067,1.233 0.154,2.462 0.233,3.692c0.133,2.113 0.267,4.221 0.438,6.325c0.096,1.254 0.217,2.508 0.333,3.758c0.188,2.075 0.375,4.146 0.596,6.208c0.129,1.237 0.279,2.467 0.421,3.7c0.242,2.087 0.496,4.171 0.775,6.246c0.154,1.179 0.321,2.35 0.492,3.521c0.308,2.137 0.629,4.271 0.971,6.396c0.175,1.1 0.358,2.196 0.546,3.288c0.375,2.217 0.771,4.429 1.188,6.633c0.188,0.983 0.375,1.967 0.567,2.954c0.462,2.35 0.95,4.692 1.458,7.025c0.175,0.817 0.35,1.637 0.533,2.454c0.575,2.567 1.179,5.121 1.812,7.667c0.142,0.575 0.275,1.158 0.421,1.733c0.737,2.942 1.517,5.867 2.321,8.779c0.05,0.175 0.096,0.354 0.146,0.529c5.371,19.225 12.237,37.833 20.458,55.679c37.088,80.496 101.846,145.596 182.092,183.125c3.008,1.404 6.042,2.775 9.092,4.104l0.013,0.004c21.267,9.262 43.562,16.608 66.658,21.825c0.492,0.112 0.983,0.212 1.475,0.321c2.683,0.596 5.375,1.167 8.075,1.7c0.812,0.163 1.633,0.312 2.45,0.471c2.388,0.458 4.787,0.896 7.192,1.308c1.008,0.171 2.013,0.333 3.021,0.5c2.233,0.363 4.475,0.708 6.725,1.033c1.129,0.163 2.254,0.321 3.383,0.475c2.142,0.288 4.296,0.554 6.45,0.808c1.213,0.142 2.425,0.288 3.638,0.417c2.104,0.225 4.208,0.425 6.321,0.617c1.254,0.113 2.508,0.229 3.762,0.333c2.125,0.171 4.258,0.308 6.396,0.442c1.237,0.079 2.471,0.171 3.704,0.237c2.3,0.121 4.612,0.208 6.925,0.288c1.067,0.038 2.133,0.092 3.208,0.121c3.379,0.092 6.771,0.142 10.175,0.142c78.892,0 152.083,-24.383 212.487,-66c-15.375,-34.933 -32.633,-68.85 -51.667,-101.608c-63.508,49.325 -150.183,70.233 -241.054,43.188c-81.804,-24.342 -146.225,-88.896 -170.463,-170.733c-27.042,-91.296 -5.692,-178.317 44.221,-241.837c-32.654,-19.221 -66.471,-36.671 -101.312,-52.25c-42.358,60.738 -67.213,134.583 -67.213,214.242c0,3.375 0.046,6.737 0.138,10.087c0.029,1.083 0.083,2.158 0.121,3.237Z" style="fill:none;fill-rule:nonzero;stroke:#f4e09c;stroke-width:4.17px;"/><path d="M1288.735,196.444c-27.875,32.204 -43.958,74.904 -41.383,121.408c4.758,85.979 74.471,155.883 160.442,160.85c46.321,2.679 88.892,-13.154 121.117,-40.729c-66.05,-93.254 -147.317,-174.954 -240.175,-241.529Z" style="fill:#f4e09c;fill-rule:nonzero;stroke:#f4e09c;stroke-width:4.17px;"/><path d="M701.373,1191.28c-96.425,4.887 -175.629,-74.321 -170.742,-170.746c4.183,-82.558 71.267,-149.642 153.829,-153.821c96.421,-4.887 175.625,74.317 170.742,170.737c-4.183,82.562 -71.271,149.646 -153.829,153.829m-2.525,-474.729c-177.283,-3.288 -321.663,141.092 -318.379,318.379c3.1,167.075 139.438,303.413 306.513,306.508c177.288,3.287 321.667,-141.088 318.379,-318.375c-3.096,-167.079 -139.433,-303.417 -306.513,-306.513" style="fill:#f4e09c;fill-rule:nonzero;"/><path d="M701.373,1191.28c-96.425,4.887 -175.629,-74.321 -170.742,-170.746c4.183,-82.558 71.267,-149.642 153.829,-153.821c96.421,-4.887 175.625,74.317 170.742,170.737c-4.183,82.562 -71.271,149.646 -153.829,153.829Zm-2.525,-474.729c-177.283,-3.288 -321.663,141.092 -318.379,318.379c3.1,167.075 139.438,303.413 306.513,306.508c177.288,3.287 321.667,-141.088 318.379,-318.375c-3.096,-167.079 -139.433,-303.417 -306.513,-306.513Z" style="fill:none;fill-rule:nonzero;stroke:#f4e09c;stroke-width:4.17px;"/></g></g></svg>